<svg xmlns="http://www.w3.org/2000/svg" xml:space="preserve" viewBox="0 383.2 595.3 101.6">
  <path fill="#FFFFFF" d="M569.3 417.2h9.6l.8 7.8h.1c2.5-3.6 8.4-8.2 15.4-8.5v10.2c-10.2 2-14.8 8.7-14.8 14.8v24.3h-11l-.1-48.6zm-51.1 24.5v-.1c0-14.9 7.3-25.7 22.3-25.7 14 0 20.4 8.1 20.4 25 0 1.8-.1 4.3-.3 6.1h-30.9c.8 6.8 4.7 10.9 13 10.9 5.2 0 10.1-.4 14.5-1.1v9.4c-5 .8-9.4 1.3-14.8 1.3-15.8-.3-24.2-8.2-24.2-25.8zm11.4-3.1h20.1c0-7.5-2-13.5-9.5-13.5-7.8-.2-10.4 6.2-10.6 13.5zm-62.2-21.4h9.6s.4 4.9.7 6.6h.1c2.7-4.2 8.2-8 15.1-8 11.5 0 17.2 6.1 17.2 18.4v31.6h-11v-29.3c0-8-3.1-11-9.1-10.6-5.4.4-11.5 6.6-11.5 14.4v25.6h-11v-48.7h-.1zm-52.3 0h9.6s.4 4.9.7 6.6h.1c2.7-4.2 8.2-8 15.1-8 11.5 0 17.2 6.1 17.2 18.4v31.6h-11v-29.3c0-8-3.1-11-9.1-10.6-5.4.4-11.5 6.6-11.5 14.4v25.6h-11v-48.7h-.1zm-43.7-.9c4.9-.4 10.1-.6 15.1-.6 11.9 0 19 4.6 19 17.6v32.5h-9.9l-.6-4.9h-.1c-3.4 3.6-8.4 5.9-14.8 5.9-8.4 0-15.1-5.4-15.1-16.3 0-10.1 8.4-19.4 29.3-14.9v-2.9c0-5.9-3.4-7.4-10.1-7.4-4 0-7.5.3-12.8.7v-9.7zm22.9 26.9c-8.9-2.2-17.7.6-17.7 7.4 0 4.6 3.1 7.3 7.5 7 3.5-.1 7.4-1.7 10.2-4.2v-10.2zm-37.7-45.5v68h-11v-66.8l11-1.2zm-63.5 19.5h9.4l.6 5.3h.1c3.2-3.9 8.7-6.7 14.9-6.7 12.4 0 19.1 9.2 19.1 25v.6c0 15.2-6.7 26-20.7 26-4.9 0-9.6-2-12.6-4v21.4h-11v-67.6h.2zm11 14.3v22.3c2.2 1.8 6 3.4 9.6 3.4 9.4 0 12-7.3 12-15.9 0-7.8-1.5-15.4-10.6-15.4-4.3.1-8.6 2.8-11 5.6zm-44.9 10c0 10.6 4.6 16.3 13.8 16.3 3.9 0 7.8-.4 11.3-1v8.9c-2.9.6-7.8 1.3-12.8 1.3-13.7 0-23.9-7.5-24-25.6 0-18 10.3-25.6 24-25.6 5 0 9.9.6 12.8 1.3v9.1c-3.6-.4-7.5-1-11.3-1-9.2 0-13.8 5.7-13.8 16.3zm-64.4.3v-.6c0-16.2 7.5-25.6 22.9-25.6s22.8 9.2 22.8 25.6v.6c0 16.2-7.5 25.6-22.8 25.6-15.4-.2-22.9-9.4-22.9-25.6zm22.9-16.9c-7.8 0-11.5 5.3-11.5 16.5s3.6 16.3 11.5 16.3 11.3-5.1 11.3-16.3c.1-11.2-3.3-16.5-11.3-16.5zM136 465.8v-68h17c23.9 0 34.9 7.1 34.9 34.1S176.9 466 153 466h-17v-.2zm39.2-34c0-15.4-3.1-23-19.5-23h-7.5v46.1h7.5c16.5-.1 19.5-7.8 19.5-23.1zm-118.6 30c2.5-6 9.4-14.5 16.5-18.9l15.6 25.8-16.1 11.6-16-18.5zm-23.2 18.6-22.1-14.1c16.6-31.1 47.8-53.3 84.5-57.5l6.1 18.9c-30.1 5.9-55.3 25.8-68.5 52.7zm4.9-64.1 2.8-33.1h19.8l2.5 29.9c-11.3 3.9-18 7-25.7 11.7-5.6 3.5-10.8 7.5-15.4 12.1L0 427.4l6.1-18.9 32.2 7.8z"/>
</svg>
