<svg xmlns="http://www.w3.org/2000/svg" fill="currentColor" class="svg-icon" overflow="hidden" style="width:1.0009765625em;height:1em;vertical-align:middle" viewBox="0 0 1025 1024">
  <path d="M924.903 1024H100.098A100.098 100.098 0 0 1 0 923.902V222.217a100.098 100.098 0 0 1 100.098-100.098h824.805a100.098 100.098 0 0 1 100.098 100.098v701.685A100.098 100.098 0 0 1 924.903 1024zM100.098 202.197a20.02 20.02 0 0 0-20.02 20.02v701.685a20.02 20.02 0 0 0 20.02 20.02h824.805a20.02 20.02 0 0 0 20.02-20.02V222.217a20.02 20.02 0 0 0-20.02-20.02z"/>
  <path d="M237.232 282.276a97.095 97.095 0 0 1-97.095-97.095V97.095a97.095 97.095 0 0 1 194.19 0 40.04 40.04 0 0 1-80.079 0 17.017 17.017 0 0 0-34.033 0v88.086a17.017 17.017 0 0 0 17.017 17.016 40.04 40.04 0 0 1 0 80.079zm550.537 0a97.095 97.095 0 0 1-97.095-97.095V97.095a97.095 97.095 0 0 1 194.19 0 40.04 40.04 0 0 1-80.078 0 17.017 17.017 0 0 0-34.033 0v88.086a17.017 17.017 0 0 0 17.016 17.016 40.04 40.04 0 0 1 0 80.079zm-275.269 0a97.095 97.095 0 0 1-97.094-97.095V97.095a97.095 97.095 0 0 1 194.19 0 40.04 40.04 0 0 1-80.079 0 17.017 17.017 0 0 0-34.033 0v88.086a17.017 17.017 0 0 0 17.016 17.016 40.04 40.04 0 0 1 0 80.079zM950.93 428.418H65.064a40.04 40.04 0 0 1 0-80.078h885.865a40.04 40.04 0 0 1 0 80.078zm-737.72 225.22a73.071 73.071 0 1 1 73.07-72.07 73.071 73.071 0 0 1-73.07 72.07zm199.194 0a73.071 73.071 0 1 1 73.071-72.07 73.071 73.071 0 0 1-73.071 72.07zm200.195 0a73.071 73.071 0 1 1 73.072-72.07 73.071 73.071 0 0 1-73.072 72.07zm200.196 0a73.071 73.071 0 1 1 73.071-72.07 73.071 73.071 0 0 1-73.071 72.07zM213.208 860.841a73.071 73.071 0 1 1 73.072-72.07 73.071 73.071 0 0 1-73.072 72.07zm199.195 0a73.071 73.071 0 1 1 73.071-72.07 73.071 73.071 0 0 1-73.071 72.07zm200.195 0a73.071 73.071 0 1 1 73.072-72.07 73.071 73.071 0 0 1-73.072 72.07z"/>
</svg>
